<?xml version="1.0" encoding="UTF-8" standalone="no"?>
<!DOCTYPE svg PUBLIC "-//W3C//DTD SVG 1.1//EN" "http://www.w3.org/Graphics/SVG/1.1/DTD/svg11.dtd"><svg width="100%"
  height="100%" viewBox="0 0 48 8" version="1.1" xmlns="http://www.w3.org/2000/svg"
  xmlns:xlink="http://www.w3.org/1999/xlink" xml:space="preserve" xmlns:serif="http://www.serif.com/"
  style="fill-rule:evenodd;clip-rule:evenodd;stroke-linejoin:round;stroke-miterlimit:2;">
  <path
    d="M2.509,2.255c2.16,-0.715 3.542,-1.003 5.058,-0.946c1.808,0.068 4.339,1.218 6.509,1.218c2.17,-0 4.339,-1.218 6.509,-1.218c2.17,-0 4.34,1.218 6.509,1.218c2.17,-0 4.34,-1.218 6.51,-1.218c2.169,-0 4.339,1.218 6.509,1.218c2.17,-0 6.509,-1.218 6.509,-1.218"
    style="fill:none;stroke:#0c2010;stroke-width:0.48px;stroke-linecap:round;stroke-miterlimit:1.5;" />
  <g>
    <path
      d="M42.047,2.552c0.53,-0.106 0.968,-0.158 1.134,0.677c0.166,0.834 -0.002,2.241 -0.532,2.347c-0.531,0.105 -1.225,-1.13 -1.391,-1.964c-0.166,-0.835 0.258,-0.954 0.789,-1.06Z"
      style="fill:url(#_Radial1);" />
  </g>
  <g>
    <path
      d="M36.196,1.8c0.517,0.158 0.927,0.319 0.679,1.132c-0.248,0.814 -1.062,1.974 -1.579,1.817c-0.518,-0.158 -0.545,-1.575 -0.296,-2.389c0.248,-0.814 0.678,-0.718 1.196,-0.56Z"
      style="fill:url(#_Radial2);" />
  </g>
  <g>
    <path
      d="M28.328,2.501c0.534,-0.089 0.973,-0.127 1.113,0.712c0.14,0.839 -0.072,2.24 -0.606,2.329c-0.533,0.089 -1.188,-1.168 -1.328,-2.007c-0.14,-0.839 0.288,-0.945 0.821,-1.034Z"
      style="fill:url(#_Radial3);" />
  </g>
  <g>
    <path
      d="M22.188,1.686c0.531,0.108 0.954,0.229 0.785,1.063c-0.169,0.833 -0.868,2.066 -1.398,1.958c-0.53,-0.107 -0.693,-1.515 -0.523,-2.349c0.169,-0.833 0.606,-0.78 1.136,-0.672Z"
      style="fill:url(#_Radial4);" />
  </g>
  <g>
    <path
      d="M14.853,2.596c0.536,-0.07 0.976,-0.093 1.087,0.751c0.11,0.843 -0.151,2.236 -0.688,2.306c-0.536,0.07 -1.146,-1.209 -1.256,-2.052c-0.111,-0.844 0.32,-0.935 0.857,-1.005Z"
      style="fill:url(#_Radial5);" />
  </g>
  <g>
    <path
      d="M8.269,1.569c0.535,0.079 0.964,0.177 0.84,1.019c-0.124,0.841 -0.756,2.11 -1.291,2.031c-0.535,-0.079 -0.773,-1.476 -0.649,-2.318c0.125,-0.842 0.564,-0.811 1.1,-0.732Z"
      style="fill:url(#_Radial6);" />
  </g>
  <defs>
    <radialGradient id="_Radial1" cx="0" cy="0" r="1" gradientUnits="userSpaceOnUse"
      gradientTransform="matrix(0.961427,-0.191371,0.300932,1.51185,42.3477,4.06392)">
      <stop offset="0" style="stop-color:#fff;stop-opacity:1" />
      <stop offset="1" style="stop-color:#f10000;stop-opacity:1" />
    </radialGradient>
    <radialGradient id="_Radial2" cx="0" cy="0" r="1" gradientUnits="userSpaceOnUse"
      gradientTransform="matrix(0.937616,0.28608,-0.449862,1.4744,35.7458,3.27413)">
      <stop offset="0" style="stop-color:#fff;stop-opacity:1" />
      <stop offset="1" style="stop-color:#f10000;stop-opacity:1" />
    </radialGradient>
    <radialGradient id="_Radial3" cx="0" cy="0" r="1" gradientUnits="userSpaceOnUse"
      gradientTransform="matrix(0.966944,-0.161196,0.253482,1.52052,28.5818,4.02145)">
      <stop offset="0" style="stop-color:#fff;stop-opacity:1" />
      <stop offset="1" style="stop-color:#f10000;stop-opacity:1" />
    </radialGradient>
    <radialGradient id="_Radial4" cx="0" cy="0" r="1" gradientUnits="userSpaceOnUse"
      gradientTransform="matrix(0.960681,0.195086,-0.306773,1.51067,21.8816,3.19682)">
      <stop offset="0" style="stop-color:#fff;stop-opacity:1" />
      <stop offset="1" style="stop-color:#f10000;stop-opacity:1" />
    </radialGradient>
    <radialGradient id="_Radial5" cx="0" cy="0" r="1" gradientUnits="userSpaceOnUse"
      gradientTransform="matrix(0.972021,-0.127046,0.19978,1.52851,15.0526,4.12453)">
      <stop offset="0" style="stop-color:#fff;stop-opacity:1" />
      <stop offset="1" style="stop-color:#f10000;stop-opacity:1" />
    </radialGradient>
    <radialGradient id="_Radial6" cx="0" cy="0" r="1" gradientUnits="userSpaceOnUse"
      gradientTransform="matrix(0.969764,0.143261,-0.225278,1.52496,8.04325,3.09374)">
      <stop offset="0" style="stop-color:#fff;stop-opacity:1" />
      <stop offset="1" style="stop-color:#f10000;stop-opacity:1" />
    </radialGradient>
  </defs>
</svg>